<?xml version="1.0" encoding="utf-8"?>
<!-- Generator: Moho 12.5 build 22438 -->
<!DOCTYPE svg PUBLIC "-//W3C//DTD SVG 1.1//EN" "http://www.w3.org/Graphics/SVG/1.1/DTD/svg11.dtd">
<svg version="1.1" id="Frame_0" xmlns="http://www.w3.org/2000/svg" xmlns:xlink="http://www.w3.org/1999/xlink" width="1280px" height="720px">
<g id="Layer_6">
<path fill="#ffa40b" fill-rule="evenodd" stroke="#ffa40b" stroke-width="1" stroke-linecap="round" stroke-linejoin="round" d="M 761.137 53.101 C 770.325 56.789 782.449 62.071 791.243 66.618 C 799.794 71.040 810.963 77.442 818.892 82.900 C 826.563 88.181 836.176 96.096 843.162 102.254 C 851.570 109.667 862.451 119.980 869.889 128.367 C 876.985 136.369 885.642 147.762 891.594 156.648 C 899.111 167.870 908.051 183.569 914.071 195.660 C 919.348 206.258 925.523 220.828 929.540 231.964 C 933.469 242.857 938.327 257.593 940.572 268.953 C 943.708 284.826 946.093 306.475 945.623 322.648 C 945.010 343.734 940.040 371.721 934.518 392.080 C 931.132 404.563 924.720 420.676 919.276 432.408 C 914.030 443.712 905.648 458.116 899.102 468.720 C 892.431 479.529 883.168 493.771 875.231 503.688 C 864.916 516.573 849.812 532.732 837.524 543.752 C 824.042 555.844 804.326 569.961 789.279 580.040 C 778.262 587.419 763.174 596.735 751.342 602.719 C 735.802 610.578 714.217 619.363 697.736 624.986 C 681.121 630.655 658.441 636.723 641.243 640.243 C 627.448 643.068 608.778 645.369 594.782 646.920 C 576.634 648.931 552.349 651.111 534.095 651.556 C 515.761 652.002 491.295 650.930 472.986 649.870 C 458.416 649.026 439.007 647.435 424.521 645.656 C 406.606 643.455 382.725 640.079 365.117 636.111 C 343.248 631.183 314.508 622.649 293.445 614.977 C 279.058 609.738 260.150 601.858 246.582 594.762 C 235.610 589.024 221.745 579.978 211.469 573.070 C 202.545 567.072 190.771 558.838 182.490 551.979 C 173.966 544.919 163.062 534.892 155.615 526.704 C 149.957 520.482 142.986 511.638 138.339 504.629 C 134.089 498.219 129.073 489.222 125.862 482.234 C 123.759 477.657 121.408 471.340 119.958 466.516 C 118.106 460.353 116.149 451.961 115.249 445.589 C 114.315 438.973 113.616 430.029 113.941 423.355 C 114.150 419.076 114.787 413.327 116.034 409.229 C 118.721 400.399 124.743 389.419 129.898 381.763 C 134.244 375.307 141.471 367.749 146.875 362.149 C 152.914 355.892 161.469 348.032 168.126 342.438 C 174.436 337.137 183.182 330.449 189.993 325.808 C 198.860 319.765 211.549 313.064 220.610 307.317 C 227.896 302.695 237.649 296.559 244.567 291.403 C 251.079 286.551 259.396 279.584 265.377 274.091 C 270.319 269.554 276.715 263.267 281.120 258.207 C 285.768 252.869 290.993 244.965 295.418 239.441 C 300.233 233.430 306.849 225.569 311.958 219.806 C 318.609 212.303 327.657 202.447 334.784 195.396 C 343.604 186.669 355.867 175.538 365.339 167.524 C 373.297 160.791 384.342 152.340 392.656 146.051 C 400.760 139.921 411.716 131.945 420.042 126.119 C 426.700 121.460 435.664 115.366 442.509 110.986 C 451.725 105.090 464.170 97.459 473.712 92.105 C 480.218 88.455 489.066 83.896 495.760 80.603 C 503.342 76.874 513.607 72.225 521.327 68.790 C 527.952 65.842 536.739 61.775 543.543 59.269 C 551.802 56.227 563.089 52.950 571.578 50.629 C 580.294 48.246 592.005 45.373 600.869 43.625 C 609.459 41.931 621.018 40.226 629.703 39.120 C 635.025 38.442 642.142 37.643 647.498 37.318 C 655.256 36.847 665.632 36.695 673.402 36.868 C 680.302 37.021 689.497 37.582 696.365 38.265 C 704.581 39.081 715.493 40.625 723.622 42.071 C 728.665 42.968 735.311 44.563 740.321 45.631 C 740.321 45.631 740.321 45.631 740.321 45.631 C 740.299 45.660 754.980 50.629 761.137 53.101 Z"/>
<linearGradient id="48ce4073-2b2a-4310-bd2e-d7b7171892dc_0" x1="6.96%" y1="53.53%" x2="69.83%" y2="38.39%">
<stop offset="0.00%" style="stop-color:rgb(211,209,2);stop-opacity:1.00" />
<stop offset="50.00%" style="stop-color:rgb(220,201,3);stop-opacity:1.00" />
<stop offset="100.00%" style="stop-color:rgb(255,164,11);stop-opacity:1.00" />
</linearGradient>
<path fill="url(#48ce4073-2b2a-4310-bd2e-d7b7171892dc_0)" fill-rule="evenodd" stroke="none" d="M 215.049 309.812 C 217.090 308.670 219.903 307.318 221.983 306.250 C 221.986 306.252 246.545 321.950 255.248 330.783 C 267.519 343.239 280.383 363.145 288.607 378.575 C 298.846 397.782 306.992 425.919 314.486 446.354 C 322.677 468.688 335.011 498.083 340.782 521.161 C 345.919 541.701 350.710 569.747 351.624 590.900 C 352.122 602.437 350.129 617.803 349.488 629.333 C 349.486 629.333 329.791 626.255 321.522 624.149 C 309.760 621.153 294.397 615.902 283.121 611.410 C 268.086 605.421 248.428 596.339 234.345 588.366 C 221.173 580.908 204.407 569.548 192.364 560.379 C 183.282 553.463 171.529 543.695 163.510 535.570 C 155.721 527.678 146.138 516.319 139.768 507.242 C 134.561 499.822 128.165 489.457 124.501 481.165 C 121.539 474.462 119.329 464.866 117.113 457.881 C 116.244 453.543 114.708 447.817 114.215 443.420 C 113.255 434.844 112.328 423.155 113.827 414.657 C 114.607 410.232 116.982 404.637 118.821 400.538 C 121.673 394.183 126.141 385.964 130.174 380.286 C 134.294 374.485 140.878 367.572 145.895 362.527 C 156.538 351.827 171.540 338.282 183.680 329.316 C 192.594 322.733 205.378 315.223 215.049 309.812 M 117.113 457.881 C 117.113 457.881 117.113 457.881 117.113 457.881 Z"/>
<path fill="none" stroke="#d0d500" stroke-width="1" stroke-linecap="round" stroke-linejoin="round" d="M 221.983 306.250 C 221.983 306.250 221.983 306.250 221.983 306.250 M 117.113 457.881 C 117.113 457.881 117.113 457.881 117.113 457.881 M 349.488 629.333 C 349.488 629.333 349.488 629.333 349.488 629.333 "/>
<linearGradient id="48ce4073-2b2a-4310-bd2e-d7b7171892dc_1" x1="3.69%" y1="91.85%" x2="91.19%" y2="8.70%">
<stop offset="0.00%" style="stop-color:rgb(255,186,72);stop-opacity:1.00" />
<stop offset="50.00%" style="stop-color:rgb(254,179,52);stop-opacity:1.00" />
<stop offset="100.00%" style="stop-color:rgb(255,166,14);stop-opacity:1.00" />
</linearGradient>
<path fill="url(#48ce4073-2b2a-4310-bd2e-d7b7171892dc_1)" fill-rule="evenodd" stroke="none" d="M 382.353 202.065 C 397.739 186.116 419.503 165.935 437.134 152.509 C 452.518 140.795 474.517 127.145 491.449 117.808 C 502.395 111.772 517.412 104.416 529.060 99.883 C 547.713 92.624 573.291 84.354 592.985 80.783 C 610.979 77.521 635.505 76.640 653.791 76.496 C 672.880 76.345 699.233 73.916 717.326 80.004 C 721.052 81.257 726.691 83.211 728.630 86.630 C 731.868 92.341 730.694 102.983 727.071 108.458 C 721.148 117.409 704.349 119.033 694.329 122.880 C 671.060 131.814 638.843 140.318 615.203 148.216 C 595.946 154.650 569.721 161.944 551.278 170.434 C 535.191 177.839 515.529 191.160 500.216 200.057 C 485.444 208.640 465.962 220.462 450.994 228.699 C 438.076 235.808 421.332 246.574 407.397 251.390 C 399.429 254.144 388.283 256.626 379.861 256.999 C 375.717 257.183 369.837 257.510 366.093 255.725 C 363.798 254.630 361.354 251.996 359.974 249.861 C 358.440 247.485 357.258 243.760 356.872 240.959 C 356.525 238.433 356.662 234.926 357.364 232.475 C 357.637 231.524 358.309 230.360 358.840 229.524 C 358.867 229.475 374.824 209.870 382.353 202.065 Z"/>
<path fill="none" stroke="#ffba45" stroke-width="1" stroke-linecap="round" stroke-linejoin="round" d=""/>
<linearGradient id="48ce4073-2b2a-4310-bd2e-d7b7171892dc_2" x1="78.85%" y1="76.10%" x2="81.00%" y2="-1.45%">
<stop offset="0.00%" style="stop-color:rgb(251,155,16);stop-opacity:1.00" />
<stop offset="50.00%" style="stop-color:rgb(251,133,27);stop-opacity:1.00" />
<stop offset="100.00%" style="stop-color:rgb(252,160,15);stop-opacity:1.00" />
</linearGradient>
<path fill="url(#48ce4073-2b2a-4310-bd2e-d7b7171892dc_2)" fill-rule="evenodd" stroke="none" d="M 921.277 430.037 C 915.746 442.435 905.780 457.666 899.139 469.507 C 899.139 469.505 903.361 459.364 904.861 454.905 C 910.312 438.694 916.187 416.597 919.660 399.851 C 923.354 382.042 927.339 358.020 928.461 339.867 C 929.493 323.168 929.238 300.728 927.299 284.109 C 926.331 275.810 924.285 264.782 921.782 256.811 C 918.117 245.144 910.646 230.526 905.254 219.550 C 897.819 204.414 887.714 184.224 878.386 170.176 C 870.310 158.014 857.777 143.018 848.113 132.077 C 838.272 120.935 824.405 106.710 813.414 96.702 C 806.837 90.713 797.318 83.597 790.501 77.884 C 781.557 70.389 760.951 52.592 760.951 52.592 C 770.394 55.655 782.349 61.521 791.172 66.071 C 800.942 71.108 813.745 78.359 822.715 84.712 C 832.841 91.883 845.380 102.785 854.329 111.380 C 862.243 118.982 872.171 129.789 879.063 138.329 C 886.070 147.011 894.730 159.167 900.528 168.699 C 906.504 178.522 913.312 192.303 918.135 202.740 C 924.129 215.707 932.152 233.111 936.090 246.842 C 941.185 264.613 945.760 289.137 946.284 307.617 C 946.912 329.754 942.759 359.359 937.845 380.953 C 934.397 396.107 927.609 415.843 921.277 430.037 Z"/>
<path fill="none" stroke="#f87b1e" stroke-width="1" stroke-linecap="round" stroke-linejoin="round" d="M 899.139 469.507 C 899.139 469.507 899.139 469.507 899.139 469.507 "/>
<path fill="#c3611a" fill-rule="evenodd" stroke="#c3611a" stroke-width="1" stroke-linecap="round" stroke-linejoin="round" d="M 890.743 167.158 C 896.679 172.764 902.874 182.141 906.044 189.666 C 907.213 192.439 909.849 196.801 908.373 199.423 C 907.606 200.786 905.158 201.715 903.605 201.530 C 901.169 201.240 899.021 198.045 897.396 196.208 C 893.979 192.343 890.635 186.227 888.193 181.683 C 886.636 178.785 884.314 174.925 883.647 171.703 C 883.223 169.651 882.091 166.121 883.647 164.718 C 884.389 164.050 885.976 164.641 886.973 164.607 C 886.973 164.607 886.973 164.607 886.973 164.607 C 886.986 164.593 889.751 166.220 890.743 167.158 Z"/>
<path fill="#129400" fill-rule="evenodd" stroke="none" d="M 971.142 181.183 C 971.142 181.183 971.142 181.183 971.142 181.183 C 962.136 174.239 950.128 164.979 941.121 158.035 C 941.121 158.035 941.121 158.035 941.121 158.035 C 939.683 159.364 936.329 162.465 936.329 162.465 C 944.738 169.953 964.358 187.420 964.361 187.423 C 966.395 185.551 971.142 181.184 971.142 181.183 C 971.142 181.183 971.142 181.183 971.142 181.183 Z"/>
<path fill="none" stroke="#129400" stroke-width="1" stroke-linecap="round" stroke-linejoin="round" d="M 936.329 162.465 C 936.329 162.465 936.329 162.465 936.329 162.465 M 971.142 181.183 C 971.142 181.183 971.142 181.183 971.142 181.183 M 964.361 187.423 C 964.361 187.423 964.361 187.423 964.361 187.423 M 941.121 158.035 C 941.121 158.035 941.121 158.035 941.121 158.035 M 971.142 181.183 C 971.142 181.183 971.142 181.183 971.142 181.183 "/>
<linearGradient id="82e478be-b70c-4081-ac97-afce216bd585_0" x1="9.16%" y1="85.89%" x2="90.54%" y2="20.48%">
<stop offset="0.00%" style="stop-color:rgb(102,117,12);stop-opacity:1.00" />
<stop offset="37.65%" style="stop-color:rgb(31,154,4);stop-opacity:1.00" />
<stop offset="100.00%" style="stop-color:rgb(140,196,3);stop-opacity:1.00" />
</linearGradient>
<path fill="url(#82e478be-b70c-4081-ac97-afce216bd585_0)" fill-rule="evenodd" stroke="none" d="M 897.264 189.404 C 897.348 189.517 897.583 189.747 897.583 189.747 C 897.589 189.750 942.716 168.162 961.959 158.707 C 967.804 155.835 975.369 151.510 981.385 149.017 C 987.033 146.677 994.771 144.006 1000.703 142.533 C 1004.168 141.672 1008.867 140.752 1012.428 140.506 C 1012.427 140.505 1008.227 129.721 1006.107 125.241 C 1005.030 122.963 1003.609 119.893 1002.190 117.811 C 1001.202 116.361 999.861 114.333 998.407 113.352 C 997.794 112.939 996.821 112.304 996.103 112.481 C 996.102 112.482 988.052 120.586 984.222 123.620 C 975.604 130.446 962.813 137.762 953.421 143.478 C 943.862 149.296 930.840 156.592 921.063 162.037 C 912.302 166.916 899.799 172.082 891.659 177.940 C 891.659 177.940 893.071 181.381 893.071 181.381 C 894.008 183.930 895.644 187.224 897.264 189.404 C 897.264 189.404 897.450 189.702 897.583 189.747 Z"/>
<path fill="none" stroke="#000000" stroke-width="1" stroke-linecap="round" stroke-linejoin="round" d=""/>
<path fill="#129400" fill-rule="evenodd" stroke="none" d="M 1113.310 601.676 C 1115.044 609.993 1114.591 621.459 1115.063 629.941 C 1115.064 629.940 1121.111 618.432 1122.423 613.067 C 1129.115 585.712 1125.592 547.309 1123.790 519.205 C 1121.350 481.143 1112.854 430.795 1105.109 393.449 C 1099.107 364.509 1091.972 325.190 1079.909 298.208 C 1064.955 264.758 1042.391 217.184 1012.028 196.676 C 998.998 187.875 976.948 180.152 961.463 182.882 C 955.730 187.118 950.790 195.365 947.017 201.203 C 942.669 207.930 937.860 217.530 934.672 224.878 C 931.212 232.854 926.977 243.741 925.094 252.229 C 922.693 263.056 921.241 277.950 921.634 289.034 C 922.093 301.949 925.156 319.121 928.869 331.500 C 934.021 348.676 944.368 370.512 953.370 386.020 C 964.476 405.157 982.915 428.427 997.052 445.449 C 1008.762 459.549 1025.841 477.088 1038.702 490.147 C 1046.402 497.966 1057.728 507.353 1065.012 515.560 C 1075.448 527.316 1088.880 543.703 1096.452 557.479 C 1103.287 569.916 1110.414 587.784 1113.310 601.676 M 961.463 182.882 C 961.410 182.892 961.345 182.930 961.302 182.963 Z"/>
<path fill="none" stroke="#129400" stroke-width="1" stroke-linecap="round" stroke-linejoin="round" d="M 1122.423 613.067 C 1129.115 585.712 1125.592 547.309 1123.790 519.205 C 1121.350 481.143 1112.854 430.795 1105.109 393.449 C 1099.107 364.509 1091.972 325.190 1079.909 298.208 C 1064.955 264.758 1042.391 217.184 1012.028 196.676 "/>
<path fill="#129400" fill-rule="evenodd" stroke="none" d="M 1120.120 612.917 C 1119.412 618.180 1116.539 624.781 1115.117 629.898 C 1115.119 629.896 1125.243 614.918 1128.749 608.027 C 1136.886 592.033 1145.344 569.475 1150.319 552.232 C 1154.902 536.348 1158.877 514.563 1160.960 498.163 C 1164.116 473.316 1165.804 439.832 1165.343 414.790 C 1164.885 389.874 1161.732 356.682 1157.940 332.052 C 1155.745 317.794 1151.949 298.874 1147.924 285.021 C 1144.363 272.762 1138.695 256.616 1133.178 245.103 C 1126.853 231.905 1117.634 214.334 1107.995 203.322 C 1100.197 194.412 1087.651 184.303 1077.374 178.424 C 1071.425 175.021 1062.672 172.041 1056.100 170.096 C 1051.740 168.806 1045.795 167.442 1041.275 166.952 C 1034.977 166.269 1026.475 166.452 1020.160 166.952 C 1012.606 167.549 1002.591 169.206 995.227 170.995 C 986.290 173.166 974.573 176.990 966.116 180.606 C 964.480 181.305 960.824 183.286 960.824 183.286 C 969.056 189.471 981.154 196.202 989.053 202.806 C 997.463 209.838 1007.715 220.371 1014.803 228.734 C 1027.676 243.924 1043.290 265.619 1053.062 282.968 C 1060.261 295.750 1067.931 313.863 1072.892 327.670 C 1077.037 339.206 1081.084 355.085 1083.984 366.995 C 1090.484 393.699 1097.035 429.789 1101.885 456.841 C 1106.688 483.630 1113.263 519.370 1116.175 546.430 C 1118.313 566.296 1122.788 593.114 1120.120 612.917 Z"/>
<path fill="none" stroke="#129400" stroke-width="1" stroke-linecap="round" stroke-linejoin="round" d=""/>
</g>
</svg>
